<?xml version="1.0" encoding="UTF-8"?>
<!DOCTYPE svg PUBLIC "-//W3C//DTD SVG 1.1//EN" "http://www.w3.org/Graphics/SVG/1.1/DTD/svg11.dtd">
<svg xmlns="http://www.w3.org/2000/svg" version="1.1" width="512px" height="512px" style="shape-rendering:geometricPrecision; text-rendering:geometricPrecision; image-rendering:optimizeQuality; fill-rule:evenodd; clip-rule:evenodd" xmlns:xlink="http://www.w3.org/1999/xlink">
<g><path style="opacity:0.991" fill="#fbaa3f" d="M 330.5,-0.5 C 338.833,-0.5 347.167,-0.5 355.5,-0.5C 367.715,2.36676 377.882,8.70009 386,18.5C 398.833,37.4945 411.166,56.8279 423,76.5C 434.624,91.1258 446.624,105.459 459,119.5C 493.148,170.908 504.481,226.908 493,287.5C 481.528,325.445 464.028,360.112 440.5,391.5C 437.324,390.66 434.658,388.993 432.5,386.5C 433.822,386.67 434.989,386.337 436,385.5C 452.983,361.644 466.816,335.977 477.5,308.5C 477.376,307.893 477.043,307.56 476.5,307.5C 475.671,306.668 474.838,307.001 474,308.5C 456.522,330.815 436.356,350.148 413.5,366.5C 398.091,377.369 381.758,386.869 364.5,395C 347.517,401.939 330.184,407.772 312.5,412.5C 304.947,414.625 297.281,416.458 289.5,418C 266.862,421.219 244.196,424.219 221.5,427C 214.037,427.965 206.704,429.465 199.5,431.5C 191.303,432.844 184.803,436.844 180,443.5C 179.816,449.305 181.983,454.139 186.5,458C 193.732,463.282 201.732,466.949 210.5,469C 252.706,472.713 294.04,468.38 334.5,456C 335.171,455.014 335.171,453.847 334.5,452.5C 337.521,455.206 339.521,458.539 340.5,462.5C 309.346,473.831 277.179,479.831 244,480.5C 222.735,481.447 202.569,477.281 183.5,468C 173.754,460.679 168.588,450.846 168,438.5C 167.436,419.656 171.102,401.656 179,384.5C 190.062,361.712 200.562,338.712 210.5,315.5C 250.505,247.981 290.339,180.314 330,112.5C 339.248,95.5932 344.748,77.5932 346.5,58.5C 348.418,51.3528 347.418,44.5195 343.5,38C 341.5,37.3333 339.5,37.3333 337.5,38C 335.333,40.1667 333.167,42.3333 331,44.5C 299.252,98.332 267.252,151.999 235,205.5C 218.257,233.394 207.257,263.394 202,295.5C 201.003,301.647 200.17,307.813 199.5,314C 199.506,316.033 199.839,317.866 200.5,319.5C 193.828,323.165 186.828,326.332 179.5,329C 167.106,333.181 154.772,337.515 142.5,342C 122.138,353.348 101.138,363.348 79.5,372C 47.4337,380.217 26.9337,368.383 18,336.5C 10.1541,294.64 11.1541,252.974 21,211.5C 39.9628,146.868 80.4628,101.368 142.5,75C 166.016,66.2723 189.682,57.939 213.5,50C 239.5,38 265.5,26 291.5,14C 304.351,8.44273 317.351,3.60939 330.5,-0.5 Z"/></g>
<g><path style="opacity:1" fill="#f3900e" d="M 346.5,58.5 C 345.872,55.0451 343.872,53.8785 340.5,55C 338.291,56.8734 336.458,59.04 335,61.5C 317.235,96.246 298.235,130.246 278,163.5C 258.49,199.184 239.49,235.184 221,271.5C 217.059,279.716 213.392,288.049 210,296.5C 207.24,303.276 205.407,310.276 204.5,317.5C 203.486,318.674 202.153,319.34 200.5,319.5C 199.839,317.866 199.506,316.033 199.5,314C 200.17,307.813 201.003,301.647 202,295.5C 207.257,263.394 218.257,233.394 235,205.5C 267.252,151.999 299.252,98.332 331,44.5C 333.167,42.3333 335.333,40.1667 337.5,38C 339.5,37.3333 341.5,37.3333 343.5,38C 347.418,44.5195 348.418,51.3528 346.5,58.5 Z"/></g>
<g><path style="opacity:1" fill="#bf6951" d="M 346.5,58.5 C 344.748,77.5932 339.248,95.5932 330,112.5C 290.339,180.314 250.505,247.981 210.5,315.5C 208.5,316.167 206.5,316.833 204.5,317.5C 205.407,310.276 207.24,303.276 210,296.5C 213.392,288.049 217.059,279.716 221,271.5C 239.49,235.184 258.49,199.184 278,163.5C 298.235,130.246 317.235,96.246 335,61.5C 336.458,59.04 338.291,56.8734 340.5,55C 343.872,53.8785 345.872,55.0451 346.5,58.5 Z"/></g>
<g><path style="opacity:1" fill="#f38f0f" d="M 476.5,307.5 C 477.043,307.56 477.376,307.893 477.5,308.5C 466.816,335.977 452.983,361.644 436,385.5C 434.989,386.337 433.822,386.67 432.5,386.5C 428.833,383.167 425.167,379.833 421.5,376.5C 434.141,362.354 446.641,348.021 459,333.5C 465.091,324.977 470.925,316.311 476.5,307.5 Z"/></g>
<g><path style="opacity:1" fill="#c16b50" d="M 476.5,307.5 C 470.925,316.311 465.091,324.977 459,333.5C 446.641,348.021 434.141,362.354 421.5,376.5C 421.167,376.5 420.833,376.5 420.5,376.5C 418.192,373.185 415.859,369.851 413.5,366.5C 436.356,350.148 456.522,330.815 474,308.5C 474.838,307.001 475.671,306.668 476.5,307.5 Z"/></g>
<g><path style="opacity:1" fill="#9caab2" d="M 413.5,366.5 C 415.859,369.851 418.192,373.185 420.5,376.5C 388.852,397.322 354.852,413.322 318.5,424.5C 315.992,420.818 313.992,416.818 312.5,412.5C 330.184,407.772 347.517,401.939 364.5,395C 381.758,386.869 398.091,377.369 413.5,366.5 Z"/></g>
<g><path style="opacity:0.981" fill="#cbd5dc" d="M 420.5,376.5 C 420.833,376.5 421.167,376.5 421.5,376.5C 425.167,379.833 428.833,383.167 432.5,386.5C 434.658,388.993 437.324,390.66 440.5,391.5C 454.553,403.704 469.22,415.204 484.5,426C 456.137,454.03 427.47,481.697 398.5,509C 393.8,509.102 389.467,507.768 385.5,505C 368.056,493.388 353.056,479.221 340.5,462.5C 339.521,458.539 337.521,455.206 334.5,452.5C 329.159,443.495 323.825,434.495 318.5,425.5C 318.5,425.167 318.5,424.833 318.5,424.5C 354.852,413.322 388.852,397.322 420.5,376.5 Z"/></g>
<g><path style="opacity:1" fill="#c06a51" d="M 312.5,412.5 C 313.992,416.818 315.992,420.818 318.5,424.5C 318.5,424.833 318.5,425.167 318.5,425.5C 281.924,435.131 244.758,441.464 207,444.5C 200.967,445.61 195.967,443.943 192,439.5C 191.333,438.5 191.333,437.5 192,436.5C 194.479,434.686 196.979,433.019 199.5,431.5C 206.704,429.465 214.037,427.965 221.5,427C 244.196,424.219 266.862,421.219 289.5,418C 297.281,416.458 304.947,414.625 312.5,412.5 Z"/></g>
<g><path style="opacity:1" fill="#f3900e" d="M 318.5,425.5 C 323.825,434.495 329.159,443.495 334.5,452.5C 335.171,453.847 335.171,455.014 334.5,456C 294.04,468.38 252.706,472.713 210.5,469C 201.732,466.949 193.732,463.282 186.5,458C 181.983,454.139 179.816,449.305 180,443.5C 184.803,436.844 191.303,432.844 199.5,431.5C 196.979,433.019 194.479,434.686 192,436.5C 191.333,437.5 191.333,438.5 192,439.5C 195.967,443.943 200.967,445.61 207,444.5C 244.758,441.464 281.924,435.131 318.5,425.5 Z"/></g>
</svg>
